<svg width="18" height="22" viewBox="0 0 18 22" fill="none" xmlns="http://www.w3.org/2000/svg">
<path d="M2.10109 15.5376C1.43868 16.0081 1.13339 16.7817 1.33023 17.4909L1.99232 19.8764C2.24418 20.7839 3.26988 21.2882 4.28352 21.0028C12.8994 18.5769 18.1486 10.3569 16.0077 2.64332C15.7559 1.73584 14.73 1.23174 13.7163 1.51714L11.0512 2.2671C10.259 2.49015 9.6666 3.12237 9.55516 3.8637L9.16858 6.43758C9.06847 7.1035 9.37432 7.74346 9.9657 8.10461L10.6792 8.53991C11.5119 9.04843 11.7423 10.0768 11.2099 10.9106L9.81339 13.0952C9.28093 13.929 8.16227 14.2945 7.23313 13.9369L6.43751 13.6305C5.77766 13.3765 4.99539 13.481 4.40037 13.9036L2.10109 15.5376Z" stroke="#FDFDFD" stroke-width="1.4" stroke-linecap="round" stroke-linejoin="round"/>
</svg>
