<svg width="18" height="14" viewBox="0 0 18 14" fill="none" xmlns="http://www.w3.org/2000/svg">
<path d="M16.109 2.12095C16.0903 2.10204 16.0647 2.09141 16.0381 2.09141C16.0114 2.09141 15.9859 2.10204 15.9671 2.12095L10.0541 8.07658C9.35411 8.78164 8.17475 8.78164 7.47474 8.07658L7.47454 8.07637L1.56156 2.15459C1.54277 2.13577 1.51725 2.12521 1.49065 2.12525C1.46406 2.12529 1.43857 2.13592 1.41983 2.15479L0.781499 2.79773C0.742784 2.83672 0.742784 2.89964 0.781498 2.93864L5.11268 7.30106L0.781498 11.6635C0.742784 11.7025 0.742784 11.7654 0.781499 11.8044L1.41983 12.4473C1.43861 12.4662 1.46415 12.4769 1.4908 12.4769C1.51744 12.4769 1.54299 12.4662 1.56176 12.4473L5.89193 8.08593L6.69448 8.89426C7.24977 9.45356 7.98044 9.76978 8.74763 9.76978C9.51482 9.76978 10.2455 9.45356 10.8008 8.89426L11.6033 8.08593L15.9335 12.4473C15.9523 12.4662 15.9778 12.4769 16.0045 12.4769C16.0311 12.4769 16.0567 12.4662 16.0754 12.4473L16.7138 11.8044C16.7525 11.7654 16.7525 11.7025 16.7138 11.6635L12.3826 7.30106L16.7474 2.9048C16.7861 2.86581 16.7861 2.80288 16.7474 2.76389L16.109 2.12095Z" fill="#FDFDFD" stroke="white" stroke-width="0.2" stroke-linejoin="round"/>
<path d="M2.16267 13.6273H15.4333C16.2619 13.6273 16.9443 12.9389 16.9443 12.1061V2.56356C16.9443 1.73072 16.2619 1.04233 15.4333 1.04233H2.16267C1.33405 1.04233 0.651617 1.73072 0.651617 2.56356V12.1061C0.651617 12.9389 1.33405 13.6273 2.16267 13.6273ZM1.75872 2.52972C1.75872 2.31356 1.91621 2.15598 2.12907 2.15598H15.3997C15.6125 2.15598 15.77 2.31356 15.77 2.52972V12.0723C15.77 12.2884 15.6125 12.446 15.3997 12.446H2.12907C1.91621 12.446 1.75872 12.2884 1.75872 12.0723V2.52972Z" fill="#FDFDFD" stroke="white" stroke-width="0.2" stroke-linejoin="round"/>
</svg>
